name D:\school\WTK\thesis\model\3dpredictsim\Results\running\Pog_s1_tmt_bCst_d05_k1000_WL30_ig24_27ms.mot
datacolumns 128
datarows 4
range 0.30177297 0.31987935
endheader
time	pelvis_tilt	pelvis_list	pelvis_rotation	pelvis_tx	pelvis_ty	pelvis_tz	hip_flexion_l	hip_adduction_l	hip_rotation_l	hip_flexion_r	hip_adduction_r	hip_rotation_r	knee_angle_l	knee_angle_r	ankle_angle_l	ankle_angle_r	subtalar_angle_l	subtalar_angle_r	tmt_angle_l	tmt_angle_r	mtp_angle_l	mtp_angle_r	lumbar_extension	lumbar_bending	lumbar_rotation	arm_flex_l	arm_add_l	arm_rot_l	arm_flex_r	arm_add_r	arm_rot_r	elbow_flex_l	elbow_flex_r	pro_sup_l	pro_sup_r	glut_med1_l/activation	glut_med2_l/activation	glut_med3_l/activation	glut_min1_l/activation	glut_min2_l/activation	glut_min3_l/activation	semimem_l/activation	semiten_l/activation	bifemlh_l/activation	bifemsh_l/activation	sar_l/activation	add_long_l/activation	add_brev_l/activation	add_mag1_l/activation	add_mag2_l/activation	add_mag3_l/activation	tfl_l/activation	pect_l/activation	grac_l/activation	glut_max1_l/activation	glut_max2_l/activation	glut_max3_l/activation	iliacus_l/activation	psoas_l/activation	quad_fem_l/activation	gem_l/activation	peri_l/activation	rect_fem_l/activation	vas_med_l/activation	vas_int_l/activation	vas_lat_l/activation	med_gas_l/activation	lat_gas_l/activation	soleus_l/activation	tib_post_l/activation	flex_dig_l/activation	flex_hal_l/activation	tib_ant_l/activation	per_brev_l/activation	per_long_l/activation	per_tert_l/activation	ext_dig_l/activation	ext_hal_l/activation	ercspn_l/activation	intobl_l/activation	extobl_l/activation	glut_med1_r/activation	glut_med2_r/activation	glut_med3_r/activation	glut_min1_r/activation	glut_min2_r/activation	glut_min3_r/activation	semimem_r/activation	semiten_r/activation	bifemlh_r/activation	bifemsh_r/activation	sar_r/activation	add_long_r/activation	add_brev_r/activation	add_mag1_r/activation	add_mag2_r/activation	add_mag3_r/activation	tfl_r/activation	pect_r/activation	grac_r/activation	glut_max1_r/activation	glut_max2_r/activation	glut_max3_r/activation	iliacus_r/activation	psoas_r/activation	quad_fem_r/activation	gem_r/activation	peri_r/activation	rect_fem_r/activation	vas_med_r/activation	vas_int_r/activation	vas_lat_r/activation	med_gas_r/activation	lat_gas_r/activation	soleus_r/activation	tib_post_r/activation	flex_dig_r/activation	flex_hal_r/activation	tib_ant_r/activation	per_brev_r/activation	per_long_r/activation	per_tert_r/activation	ext_dig_r/activation	ext_hal_r/activation	ercspn_r/activation	intobl_r/activation	extobl_r/activation	
          0.30177297	        -10.27786850	          1.50304853	          0.42247047	          0.81478701	          0.83259970	         -0.00163296	         46.00590044	          3.02468514	         -2.83923542	         -3.85530860	          0.49698989	          4.49900453	        -30.44150818	        -34.78960460	         13.49387294	        -13.41364350	          0.68958994	          2.32348827	         -0.59942197	         -7.26592828	          1.99426533	         20.34682425	          1.36741707	         -2.60490570	          2.57368932	        -10.32267711	        -13.49650006	         -0.07350990	          1.15506665	        -14.12537365	         19.34442161	         62.14089168	         34.15701851	         86.51662706	         86.51662706	          0.24282847	          0.28158641	          0.39153179	          0.06056853	          0.06056544	          0.11059269	          0.47743591	          0.06056498	          0.43537229	          0.05000028	          0.12121468	          0.05502979	          0.23587315	          0.73048652	          0.63955570	          0.51908822	          0.06414566	          0.05007456	          0.12388082	          0.48484480	          0.45329679	          0.61811927	          0.06398807	          0.06318650	          0.57697746	          0.09191387	          0.53380969	          0.05000003	          0.11929120	          0.11410525	          0.12169003	          0.05000001	          0.05000002	          0.05000000	          0.12497058	          0.05000037	          0.05000032	          0.56147877	          0.42533367	          0.20572021	          0.79485310	          0.86414771	          0.66017539	          0.20500836	          0.05000025	          0.05861397	          0.10764080	          0.05246904	          0.09187262	          0.16054368	          0.10460434	          0.08885996	          0.12667603	          0.07920594	          0.05002765	          0.05000114	          0.26919686	          0.92773395	          0.28918977	          0.15103220	          0.06918702	          0.05502761	          0.94293565	          0.39005297	          0.18040250	          0.05000265	          0.05000349	          0.06732390	          0.75957813	          0.96187427	          0.71540358	          0.63128688	          0.14350040	          0.35002938	          0.07966103	          0.07986367	          0.07336256	          0.13614611	          0.20675194	          0.05000014	          0.25504179	          0.11053813	          0.25310712	          0.05000000	          0.11463388	          0.10924012	          0.18404052	          0.49037547	          0.19082131	          0.15064047	          0.16716819	          0.05000010	
          0.30780843	        -10.24613691	          1.45743115	          0.36715360	          0.83226039	          0.83074606	         -0.00162769	         45.72989162	          3.13788187	         -2.58038649	         -3.54489277	          0.48227100	          4.41847585	        -31.21654444	        -36.47890259	         12.83786714	        -15.09303312	          0.29268721	          2.95062154	         -0.60679072	         -6.84278474	          1.98239940	         16.91291509	          1.49316115	         -2.69957314	          2.57721377	        -10.48035235	        -13.47118370	         -0.25654384	          0.96506221	        -14.15868246	         19.34236332	         62.03337286	         34.26412924	         86.51662706	         86.51662706	          0.22063464	          0.25585023	          0.35574724	          0.05503278	          0.05502999	          0.10048495	          0.43379959	          0.05502955	          0.39558047	          0.05502943	          0.11013603	          0.05000059	          0.21431512	          0.71875007	          0.58110264	          0.47164686	          0.05828312	          0.05000579	          0.11255870	          0.46623558	          0.46107921	          0.59287121	          0.06662653	          0.06665732	          0.69835035	          0.16165368	          0.66756054	          0.06665731	          0.25584883	          0.23174744	          0.23730656	          0.05000002	          0.05000006	          0.05000000	          0.16614701	          0.06056450	          0.06056471	          0.51016117	          0.42581392	          0.19568803	          0.72220596	          0.78516712	          0.59983722	          0.18627119	          0.05000002	          0.05325696	          0.09780274	          0.05252959	          0.09781457	          0.14587048	          0.09504388	          0.08074113	          0.16246861	          0.08191214	          0.13617359	          0.07580517	          0.30882139	          0.85595103	          0.31007571	          0.17026283	          0.06286603	          0.05000015	          0.95930839	          0.55848050	          0.31287171	          0.06665907	          0.06665371	          0.06117143	          0.69015486	          0.96687212	          0.77057642	          0.57358945	          0.13038494	          0.31803768	          0.07238024	          0.07256435	          0.06665743	          0.12834022	          0.18785546	          0.08258410	          0.23173184	          0.25210683	          0.22997443	          0.05000014	          0.10415667	          0.09925588	          0.16721974	          0.49377417	          0.42298914	          0.14394369	          0.25567106	          0.05000002	
          0.31384389	        -10.21177523	          1.42176169	          0.30083497	          0.84969049	          0.82871927	         -0.00160798	         45.35516491	          3.26031393	         -2.23828387	         -3.04378782	          0.48960555	          4.31114724	        -32.44474217	        -38.36667414	         12.22813129	        -16.13355446	         -0.16134706	          3.54077886	         -0.79928008	         -6.70724834	          1.94163264	         13.93210724	          1.61659555	         -2.79713162	          2.57015853	        -10.59716508	        -13.45606920	         -0.40022884	          0.80309910	        -14.18123473	         19.33561692	         61.82258759	         34.32475697	         86.51662706	         86.51662706	          0.38301263	          0.42923346	          0.54059508	          0.05000315	          0.05000069	          0.35857184	          0.39415151	          0.05000010	          0.35942551	          0.05000004	          0.10006992	          0.06666627	          0.38540695	          0.69594186	          0.64297352	          0.52303838	          0.05295637	          0.06665924	          0.10227160	          0.54555194	          0.50163245	          0.62351807	          0.06056509	          0.06056512	          0.78489884	          0.14687913	          0.76294251	          0.06056503	          0.23246501	          0.21056643	          0.21561750	          0.07263490	          0.07028109	          0.06557561	          0.15096167	          0.05502915	          0.05502940	          0.46353384	          0.38689780	          0.17780278	          0.65619857	          0.71340531	          0.54501377	          0.16924652	          0.05000000	          0.05502958	          0.08886385	          0.06056554	          0.08887464	          0.13253837	          0.08635723	          0.07336201	          0.15998720	          0.11090544	          0.21108926	          0.06887687	          0.28059642	          0.77771953	          0.43860376	          0.15470500	          0.06056721	          0.05502979	          0.97098351	          0.50743766	          0.28427669	          0.06056993	          0.06056552	          0.06056526	          0.62707662	          0.87857183	          0.70014789	          0.52116506	          0.11846815	          0.28896993	          0.06576489	          0.06593218	          0.06056513	          0.14350017	          0.17068604	          0.09950574	          0.21055220	          0.22906524	          0.20895549	          0.06494627	          0.09463704	          0.09018417	          0.15193632	          0.63901959	          0.58854367	          0.18052833	          0.23230348	          0.05000004	
          0.31987935	        -10.17638355	          1.39856029	          0.22343862	          0.86704823	          0.82658095	         -0.00158609	         44.81197703	          3.39049721	         -1.86559619	         -2.35950415	          0.51506840	          4.18611463	        -33.62767632	        -40.44923463	         12.10170548	        -16.55905305	         -0.64579482	          4.05890152	         -1.11176108	         -6.61643722	          1.87070183	         11.40848006	          1.73518022	         -2.89608901	          2.55339772	        -10.66086751	        -13.44985355	         -0.49303223	          0.67375883	        -14.19145873	         19.31794230	         61.48867936	         34.33341539	         86.51662706	         86.51662706	          0.44236293	          0.59299680	          0.67240676	          0.14199741	          0.32257264	          0.54260922	          0.35812715	          0.15841146	          0.32657501	          0.09288172	          0.09092383	          0.06057320	          0.35018184	          0.63233475	          0.58420767	          0.47524145	          0.05000033	          0.06056732	          0.19262903	          0.67592523	          0.57082188	          0.58995600	          0.05502963	          0.05502966	          0.84661523	          0.31124950	          0.83095828	          0.05502956	          0.21121837	          0.19132125	          0.19591068	          0.06599627	          0.06385760	          0.05958218	          0.29302573	          0.05000026	          0.05000021	          0.61745582	          0.35153642	          0.16155210	          0.75484143	          0.79563457	          0.67555763	          0.15377786	          0.07340752	          0.05000012	          0.08074201	          0.05503010	          0.08075176	          0.38142866	          0.07846795	          0.06665702	          0.17673067	          0.13676991	          0.19179746	          0.08645729	          0.29080465	          0.70663818	          0.39851688	          0.14056555	          0.05503201	          0.05000044	          0.97930883	          0.48461199	          0.25829509	          0.05503421	          0.05503010	          0.05502980	          0.56976356	          0.80159392	          0.63615631	          0.47353207	          0.10764051	          0.26255892	          0.05975417	          0.05990617	          0.05502965	          0.13038468	          0.15508584	          0.09041120	          0.19130832	          0.20812942	          0.18985758	          0.06589417	          0.08598770	          0.08194165	          0.13805029	          0.74259146	          0.70659786	          0.19353912	          0.21107159	          0.07335300	
